<svg xmlns="http://www.w3.org/2000/svg" version="1.1" xmlns:xlink="http://www.w3.org/1999/xlink" xmlns:svgjs="http://svgjs.com/svgjs" width="1440" height="560" preserveAspectRatio="none" viewBox="0 0 1440 560"><g mask="url(&quot;#SvgjsMask1032&quot;)" fill="none"><rect width="1440" height="560" x="0" y="0" fill="url(#SvgjsLinearGradient1033)"></rect><path d="M642.25 543.13 a129.52 129.52 0 1 0 259.04 0 a129.52 129.52 0 1 0 -259.04 0z" fill="rgba(28, 83, 142, 0.4)" class="triangle-float3"></path><path d="M84.87 410.12 a105.56 105.56 0 1 0 211.12 0 a105.56 105.56 0 1 0 -211.12 0z" fill="rgba(28, 83, 142, 0.4)" class="triangle-float3"></path><path d="M398.14 131.88 a135.34 135.34 0 1 0 270.68 0 a135.34 135.34 0 1 0 -270.68 0z" fill="rgba(28, 83, 142, 0.4)" class="triangle-float3"></path><path d="M872.5 131.85 a93.41 93.41 0 1 0 186.82 0 a93.41 93.41 0 1 0 -186.82 0z" fill="rgba(28, 83, 142, 0.4)" class="triangle-float1"></path><path d="M563.92 269.94 a128.25 128.25 0 1 0 256.5 0 a128.25 128.25 0 1 0 -256.5 0z" fill="rgba(28, 83, 142, 0.4)" class="triangle-float1"></path><path d="M-99.95 400.57 a117.74 117.74 0 1 0 235.48 0 a117.74 117.74 0 1 0 -235.48 0z" fill="rgba(28, 83, 142, 0.4)" class="triangle-float3"></path></g><defs><mask id="SvgjsMask1032"><rect width="1440" height="560" fill="#ffffff"></rect></mask><linearGradient x1="15.28%" y1="-39.29%" x2="84.72%" y2="139.29%" gradientUnits="userSpaceOnUse" id="SvgjsLinearGradient1033"><stop stop-color="rgba(129, 50, 154, 1)" offset="0.75"></stop><stop stop-color="rgba(120, 17, 154, 1)" offset="1"></stop></linearGradient><style>
            @keyframes float1 {
                0%{transform: translate(0, 0)}
                50%{transform: translate(-10px, 0)}
                100%{transform: translate(0, 0)}
            }

            .triangle-float1 {
                animation: float1 5s infinite;
            }

            @keyframes float2 {
                0%{transform: translate(0, 0)}
                50%{transform: translate(-5px, -5px)}
                100%{transform: translate(0, 0)}
            }

            .triangle-float2 {
                animation: float2 4s infinite;
            }

            @keyframes float3 {
                0%{transform: translate(0, 0)}
                50%{transform: translate(0, -10px)}
                100%{transform: translate(0, 0)}
            }

            .triangle-float3 {
                animation: float3 6s infinite;
            }
        </style></defs></svg>